<?xml version="1.0" encoding="UTF-8" standalone="no"?>
<!-- Created with Inkscape (http://www.inkscape.org/) -->

<svg
   xmlns:dc="http://purl.org/dc/elements/1.1/"
   xmlns:cc="http://creativecommons.org/ns#"
   xmlns:rdf="http://www.w3.org/1999/02/22-rdf-syntax-ns#"
   xmlns:svg="http://www.w3.org/2000/svg"
   xmlns="http://www.w3.org/2000/svg"
   xmlns:sodipodi="http://sodipodi.sourceforge.net/DTD/sodipodi-0.dtd"
   xmlns:inkscape="http://www.inkscape.org/namespaces/inkscape"
   width="210mm"
   height="297mm"
   viewBox="0 0 210 297"
   version="1.1"
   id="svg8"
   inkscape:version="0.92.2 (5c3e80d, 2017-08-06)"
   sodipodi:docname="Project logo.svg">
  <defs
     id="defs2" />
  <sodipodi:namedview
     id="base"
     pagecolor="#ffffff"
     bordercolor="#666666"
     borderopacity="1.0"
     inkscape:pageopacity="0.0"
     inkscape:pageshadow="2"
     inkscape:zoom="0.5"
     inkscape:cx="419.58692"
     inkscape:cy="1049.1"
     inkscape:document-units="px"
     inkscape:current-layer="layer1"
     showgrid="false"
     showborder="true"
     inkscape:object-nodes="true"
     showguides="true"
     inkscape:guide-bbox="true"
     inkscape:window-width="1366"
     inkscape:window-height="706"
     inkscape:window-x="-8"
     inkscape:window-y="-8"
     inkscape:window-maximized="1" />
  <metadata
     id="metadata5">
    <rdf:RDF>
      <cc:Work
         rdf:about="">
        <dc:format>image/svg+xml</dc:format>
        <dc:type
           rdf:resource="http://purl.org/dc/dcmitype/StillImage" />
        <dc:title></dc:title>
      </cc:Work>
    </rdf:RDF>
  </metadata>
  <g
     inkscape:label="Layer 1"
     inkscape:groupmode="layer"
     id="layer1">
    <g
       id="g4949"
       transform="matrix(0.95429457,0,0,0.95429457,-510.21334,345.98623)">
      <path
         inkscape:connector-curvature="0"
         id="path4618"
         d="m 602.30178,-313.68416 -12.09855,6.9851 -0.84386,-17.74298 z"
         style="opacity:1;fill:#ba1600;fill-opacity:0.90980392;stroke:#000000;stroke-width:0.26458332;stroke-linecap:butt;stroke-linejoin:miter;stroke-miterlimit:4;stroke-dasharray:none;stroke-opacity:1" />
      <path
         inkscape:connector-curvature="0"
         id="path4616"
         d="m 535.12232,-335.24861 10.12894,-5.84795 2.91854,10.42739 z"
         style="opacity:1;fill:#ba1600;fill-opacity:0.90980392;stroke:#000000;stroke-width:0.26458332;stroke-linecap:butt;stroke-linejoin:miter;stroke-miterlimit:4;stroke-dasharray:none;stroke-opacity:1" />
      <path
         id="path4598"
         transform="scale(0.26458333)"
         d="m 2149.4629,-1370.6016 -4.252,2.459 -4.248,2.4571 -44.2012,25.5175 c -1.5923,0.8686 -3.1616,1.7753 -4.7031,2.7207 0.2819,-0.1727 0.1998,-0.1304 -0.2363,0.1387 l -49.1895,28.3887 v 96.9765 c -0.039,0.6632 -0.078,1.3411 -0.1055,2.0625 l -0.016,0.2832 v 0.3633 c 2e-4,58.8836 48.0704,106.9451 106.9531,106.9453 58.8827,-2e-4 106.943,-48.0628 106.9434,-106.9453 v -0.082 -0.1504 -0.08 c -0.019,-1.044 -0.061,-2.0511 -0.1074,-3.0351 v -96.336 l -52.166,-30.1132 0.1856,0.1093 c -0.9609,-0.5876 -1.7588,-1.0164 -2.3496,-1.3574 -0.5627,-0.3247 -1.3255,-0.7975 -2.3086,-1.334 l 0.039,0.019 z"
         style="color:#000000;font-style:normal;font-variant:normal;font-weight:normal;font-stretch:normal;font-size:medium;line-height:normal;font-family:sans-serif;font-variant-ligatures:normal;font-variant-position:normal;font-variant-caps:normal;font-variant-numeric:normal;font-variant-alternates:normal;font-feature-settings:normal;text-indent:0;text-align:start;text-decoration:none;text-decoration-line:none;text-decoration-style:solid;text-decoration-color:#000000;letter-spacing:normal;word-spacing:normal;text-transform:none;writing-mode:lr-tb;direction:ltr;text-orientation:mixed;dominant-baseline:auto;baseline-shift:baseline;text-anchor:start;white-space:normal;shape-padding:0;clip-rule:nonzero;display:inline;overflow:visible;visibility:visible;opacity:1;isolation:auto;mix-blend-mode:normal;color-interpolation:sRGB;color-interpolation-filters:linearRGB;solid-color:#000000;solid-opacity:1;vector-effect:none;fill:#000000;fill-opacity:1;fill-rule:nonzero;stroke:none;stroke-width:17;stroke-linecap:butt;stroke-linejoin:miter;stroke-miterlimit:4;stroke-dasharray:none;stroke-dashoffset:0;stroke-opacity:1;color-rendering:auto;image-rendering:auto;shape-rendering:auto;text-rendering:auto;enable-background:accumulate"
         inkscape:connector-curvature="0" />
      <path
         id="path4587"
         transform="scale(0.26458333)"
         d="m 2149.4668,-1360.7852 -4.252,2.459 -44.2031,25.5196 c -1.5255,0.828 -3.0302,1.698 -4.5097,2.6054 -0.07,0.043 -0.1446,0.082 -0.2149,0.125 l -0.096,0.059 -45.0586,26.0059 v 92.2676 c -0.043,0.7289 -0.084,1.4539 -0.1113,2.1836 l -0.01,0.164 v 0.1621 c 2e-4,54.2702 44.1829,98.4451 98.4531,98.4453 54.2702,-2e-4 98.4431,-44.1751 98.4434,-98.4453 v -0.082 -0.072 c -0.019,-1.0161 -0.06,-2.0369 -0.1094,-3.0566 v -0.045 -91.5196 l -47.916,-27.6601 c -0.71,-0.4342 -1.4434,-0.8321 -2.1641,-1.2481 -0.7188,-0.4149 -1.4251,-0.8514 -2.1543,-1.248 l -0.039,-0.022 z"
         style="color:#000000;font-style:normal;font-variant:normal;font-weight:normal;font-stretch:normal;font-size:medium;line-height:normal;font-family:sans-serif;font-variant-ligatures:normal;font-variant-position:normal;font-variant-caps:normal;font-variant-numeric:normal;font-variant-alternates:normal;font-feature-settings:normal;text-indent:0;text-align:start;text-decoration:none;text-decoration-line:none;text-decoration-style:solid;text-decoration-color:#000000;letter-spacing:normal;word-spacing:normal;text-transform:none;writing-mode:lr-tb;direction:ltr;text-orientation:mixed;dominant-baseline:auto;baseline-shift:baseline;text-anchor:start;white-space:normal;shape-padding:0;clip-rule:nonzero;display:inline;overflow:visible;visibility:visible;opacity:1;isolation:auto;mix-blend-mode:normal;color-interpolation:sRGB;color-interpolation-filters:linearRGB;solid-color:#000000;solid-opacity:1;vector-effect:none;fill:#ececec;fill-opacity:1;fill-rule:nonzero;stroke:none;stroke-width:17;stroke-linecap:butt;stroke-linejoin:miter;stroke-miterlimit:4;stroke-dasharray:none;stroke-dashoffset:0;stroke-opacity:1;color-rendering:auto;image-rendering:auto;shape-rendering:auto;text-rendering:auto;enable-background:accumulate"
         inkscape:connector-curvature="0" />
      <path
         style="opacity:1;fill:#ba1500;fill-opacity:0.90957444;stroke:#000000;stroke-width:0.41486666;stroke-miterlimit:4;stroke-dasharray:none;stroke-opacity:1"
         d="m 568.71246,-357.44369 -11.6954,6.75204 c -0.40448,0.21822 -0.80255,0.44811 -1.19372,0.68937 -0.55176,0.36083 -1.08828,0.74443 -1.60819,1.1498 0.51991,-0.40537 1.05643,-0.78897 1.60819,-1.1498 l -10.87946,6.28126 v 23.17793 c -0.0125,0.1995 -0.0225,0.39916 -0.03,0.59891 6e-5,13.14356 10.655,23.7985 23.79856,23.79855 13.14356,-5e-5 23.7985,-10.65499 23.79856,-23.79855 -0.005,-0.28317 -0.0149,-0.56623 -0.03,-0.84905 v -22.92779 l -11.60137,-6.6983 h -5e-4 c -0.34281,-0.20963 -0.69088,-0.41055 -1.04387,-0.60256 l -10e-4,-5e-4 z"
         id="path4581"
         inkscape:connector-curvature="0" />
      <path
         inkscape:connector-curvature="0"
         id="path4613"
         d="m 535.12232,-335.24861 v 2.81632 24.38188 l 67.17946,-5.82084 v -27.1982 z"
         style="color:#000000;font-style:normal;font-variant:normal;font-weight:normal;font-stretch:normal;font-size:medium;line-height:normal;font-family:sans-serif;font-variant-ligatures:normal;font-variant-position:normal;font-variant-caps:normal;font-variant-numeric:normal;font-variant-alternates:normal;font-feature-settings:normal;text-indent:0;text-align:start;text-decoration:none;text-decoration-line:none;text-decoration-style:solid;text-decoration-color:#000000;letter-spacing:normal;word-spacing:normal;text-transform:none;writing-mode:lr-tb;direction:ltr;text-orientation:mixed;dominant-baseline:auto;baseline-shift:baseline;text-anchor:start;white-space:normal;shape-padding:0;clip-rule:nonzero;display:inline;overflow:visible;visibility:visible;opacity:1;isolation:auto;mix-blend-mode:normal;color-interpolation:sRGB;color-interpolation-filters:linearRGB;solid-color:#000000;solid-opacity:1;vector-effect:none;fill:#0e3943;fill-opacity:1;fill-rule:nonzero;stroke:#000000;stroke-width:0.47624999;stroke-linecap:butt;stroke-linejoin:miter;stroke-miterlimit:4;stroke-dasharray:none;stroke-dashoffset:0;stroke-opacity:1;color-rendering:auto;image-rendering:auto;shape-rendering:auto;text-rendering:auto;enable-background:accumulate" />
      <rect
         transform="matrix(0.99626724,-0.0863226,0,1,0,0)"
         y="-286.52533"
         x="538.63898"
         height="22.484755"
         width="64.408447"
         id="rect4605"
         style="opacity:1;fill:#f8cf4c;fill-opacity:1;stroke:none;stroke-width:4.16601467;stroke-miterlimit:4;stroke-dasharray:none;stroke-opacity:1" />
      <text
         transform="skewY(-4.9520838)"
         id="text4603"
         y="-267.74457"
         x="538.91016"
         style="font-style:normal;font-variant:normal;font-weight:300;font-stretch:normal;font-size:22.13417244px;line-height:1.25;font-family:'Bookman Old Style';-inkscape-font-specification:'Bookman Old Style, Light';font-variant-ligatures:normal;font-variant-caps:normal;font-variant-numeric:normal;font-feature-settings:normal;text-align:start;letter-spacing:0px;word-spacing:0px;writing-mode:lr-tb;text-anchor:start;opacity:1;fill:#2a150d;fill-opacity:1;stroke:none;stroke-width:0.58405983"
         xml:space="preserve"><tspan
           style="font-style:normal;font-variant:normal;font-weight:300;font-stretch:normal;font-size:22.13417244px;font-family:'Bookman Old Style';-inkscape-font-specification:'Bookman Old Style, Light';font-variant-ligatures:normal;font-variant-caps:normal;font-variant-numeric:normal;font-feature-settings:normal;text-align:start;writing-mode:lr-tb;text-anchor:start;fill:#2a150d;fill-opacity:1;stroke-width:0.58405983"
           y="-267.74457"
           x="538.91016"
           id="tspan4601"
           sodipodi:role="line">FRSS</tspan></text>
      <g
         id="text4624"
         style="font-style:normal;font-weight:normal;font-size:4.25226259px;line-height:1.25;font-family:sans-serif;letter-spacing:0.42333332px;word-spacing:0px;opacity:1;fill:#ffffff;fill-opacity:1;stroke:none;stroke-width:0.1090406"
         aria-label="SMART SECURITY">
        <path
           id="path4658"
           style="font-size:4.25226259px;line-height:1.25;letter-spacing:0.42333332px;fill:#ffffff;stroke-width:0.1090406"
           d="m 553.02824,-305.30212 q -0.13901,0.11536 -0.32918,0.16256 -0.18885,0.0488 -0.37991,0.0104 -0.20834,-0.043 -0.40774,-0.16618 -0.19807,-0.12163 -0.39696,-0.36129 -0.21349,-0.25724 -0.3366,-0.50313 -0.1218,-0.24429 -0.20388,-0.53503 l 0.39624,-0.32884 0.0186,0.0224 q -3.5e-4,0.30519 0.11441,0.60928 0.11476,0.30409 0.28713,0.5118 0.24398,0.29399 0.48948,0.36546 0.24682,0.0731 0.43056,-0.0794 0.15818,-0.13127 0.1683,-0.27188 0.0114,-0.13901 -0.0783,-0.33166 -0.0675,-0.14636 -0.16341,-0.3042 -0.0946,-0.15624 -0.19258,-0.33934 -0.19544,-0.37204 -0.16136,-0.65935 0.037,-0.28704 0.29744,-0.50317 0.29878,-0.24796 0.69841,-0.1533 0.40124,0.0933 0.72345,0.48158 0.20818,0.25085 0.33395,0.49993 0.12577,0.24909 0.18939,0.4688 l -0.37387,0.31028 -0.0186,-0.0224 q 0.002,-0.23128 -0.10688,-0.51569 -0.1063,-0.28413 -0.29856,-0.51581 -0.21083,-0.25404 -0.4449,-0.32151 -0.23275,-0.0659 -0.39892,0.072 -0.14859,0.12332 -0.16962,0.27029 -0.021,0.14697 0.0947,0.37742 0.0625,0.12082 0.18701,0.33588 0.12451,0.21505 0.19968,0.37391 0.14981,0.32357 0.119,0.57579 -0.0308,0.25223 -0.28646,0.46438 z"
           inkscape:connector-curvature="0" />
        <path
           id="path4660"
           style="font-size:4.25226259px;line-height:1.25;letter-spacing:0.42333332px;fill:#ffffff;stroke-width:0.1090406"
           d="m 555.18168,-302.14924 -0.31087,-0.26901 1.74315,-2.01439 -1.83611,0.80818 -0.18527,-0.16032 0.54081,-1.92907 -1.74315,2.01439 -0.29046,-0.25134 2.02302,-2.33783 0.42392,0.36683 -0.503,1.84097 1.72922,-0.77986 0.43177,0.37363 z"
           inkscape:connector-curvature="0" />
        <path
           id="path4662"
           style="font-size:4.25226259px;line-height:1.25;letter-spacing:0.42333332px;fill:#ffffff;stroke-width:0.1090406"
           d="m 558.2991,-300.15898 -0.37408,-0.22802 0.18965,-0.89353 -1.14174,-0.69597 -0.70733,0.57796 -0.35635,-0.21722 2.57007,-2.05408 0.46804,0.2853 z m -0.10886,-1.48886 0.32727,-1.57804 -1.25448,1.01283 z"
           inkscape:connector-curvature="0" />
        <path
           id="path4664"
           style="font-size:4.25226259px;line-height:1.25;letter-spacing:0.42333332px;fill:#ffffff;stroke-width:0.1090406"
           d="m 561.46889,-298.78689 -0.49224,-0.20601 -0.4793,-1.53306 -0.53438,-0.22364 -0.47453,1.13388 -0.37924,-0.15872 1.19356,-2.85192 0.79869,0.33426 q 0.25857,0.10821 0.41652,0.21483 0.15875,0.1047 0.26058,0.2486 0.11427,0.16261 0.13793,0.34808 0.0264,0.18435 -0.069,0.41228 -0.12906,0.30837 -0.37157,0.45221 -0.24171,0.14193 -0.55778,0.13344 z m -0.0291,-2.42054 q 0.0513,-0.12258 0.0465,-0.23486 -0.002,-0.11341 -0.0744,-0.22021 -0.0591,-0.09 -0.1633,-0.15837 -0.10339,-0.0703 -0.25662,-0.13441 l -0.44627,-0.18676 -0.45049,1.07641 0.38307,0.16032 q 0.18004,0.0753 0.32694,0.10081 0.1477,0.0236 0.27762,-0.0234 0.11986,-0.0444 0.20336,-0.13097 0.0862,-0.0877 0.15356,-0.2486 z"
           inkscape:connector-curvature="0" />
        <path
           id="path4666"
           style="font-size:4.25226259px;line-height:1.25;letter-spacing:0.42333332px;fill:#ffffff;stroke-width:0.1090406"
           d="m 565.08132,-300.65359 -1.06956,-0.27596 -0.68109,2.63973 -0.39807,-0.10271 0.68109,-2.63973 -1.06957,-0.27596 0.0913,-0.35384 2.5372,0.65463 z"
           inkscape:connector-curvature="0" />
        <path
           id="path4668"
           style="font-size:4.25226259px;line-height:1.25;letter-spacing:0.42333332px;fill:#ffffff;stroke-width:0.1090406"
           d="m 569.41077,-298.48928 q -0.004,0.18059 -0.0939,0.35493 -0.0874,0.17439 -0.24189,0.29313 -0.16932,0.12877 -0.39325,0.19804 -0.22186,0.0693 -0.53321,0.0617 -0.33419,-0.008 -0.60042,-0.0771 -0.26415,-0.0688 -0.53721,-0.19804 l 0.0126,-0.51477 0.0291,7.1e-4 q 0.22975,0.20088 0.53435,0.31428 0.3046,0.11341 0.57444,0.12004 0.38192,0.009 0.59716,-0.12864 0.21731,-0.13797 0.22318,-0.37667 0.005,-0.20549 -0.0943,-0.30555 -0.0972,-0.1 -0.3014,-0.15902 -0.15465,-0.0453 -0.33665,-0.0768 -0.17992,-0.0314 -0.38232,-0.0779 -0.40884,-0.0973 -0.60295,-0.31181 -0.19199,-0.21656 -0.18368,-0.5549 0.01,-0.38815 0.34356,-0.6271 0.33408,-0.24102 0.83846,-0.22863 0.32588,0.008 0.59627,0.077 0.27038,0.0689 0.47778,0.16543 l -0.0119,0.48571 -0.0291,-7.1e-4 q -0.17276,-0.15378 -0.45888,-0.25843 -0.284,-0.10667 -0.58497,-0.11406 -0.33003,-0.008 -0.53474,0.12394 -0.20263,0.1321 -0.20793,0.34797 -0.005,0.19304 0.0922,0.30549 0.0969,0.11246 0.34665,0.17675 0.13213,0.0323 0.37604,0.0799 0.24391,0.0475 0.41305,0.0953 0.34232,0.0998 0.51213,0.28881 0.16982,0.18902 0.16166,0.52112 z"
           inkscape:connector-curvature="0" />
        <path
           id="path4670"
           style="font-size:4.25226259px;line-height:1.25;letter-spacing:0.42333332px;fill:#ffffff;stroke-width:0.1090406"
           d="m 572.49555,-297.92214 -2.02223,0.24355 -0.36968,-3.06943 2.02224,-0.24355 0.0437,0.3628 -1.61408,0.1944 0.1013,0.84105 1.61408,-0.19439 0.0437,0.3628 -1.61408,0.1944 0.1373,1.13995 1.61408,-0.19439 z"
           inkscape:connector-curvature="0" />
        <path
           id="path4672"
           style="font-size:4.25226259px;line-height:1.25;letter-spacing:0.42333332px;fill:#ffffff;stroke-width:0.1090406"
           d="m 575.79958,-298.97733 q -0.097,0.0782 -0.17567,0.14484 -0.0766,0.0661 -0.20827,0.15159 -0.11178,0.0714 -0.24888,0.13686 -0.13455,0.0669 -0.3068,0.11393 -0.32447,0.0886 -0.61548,0.0713 -0.28955,-0.0199 -0.53891,-0.16059 -0.24425,-0.13775 -0.43229,-0.40064 -0.18858,-0.26488 -0.29472,-0.65345 -0.10066,-0.36854 -0.0758,-0.68741 0.0248,-0.31887 0.1664,-0.57278 0.13721,-0.24626 0.3777,-0.42172 0.24249,-0.17601 0.57097,-0.26573 0.24035,-0.0657 0.49456,-0.0727 0.25622,-0.008 0.58858,0.0588 l 0.12857,0.47069 -0.03,0.008 q -0.30271,-0.13901 -0.57078,-0.16695 -0.26807,-0.0279 -0.54447,0.0476 -0.22633,0.0618 -0.38835,0.18572 -0.16057,0.12134 -0.26065,0.31441 -0.0972,0.18797 -0.11237,0.43965 -0.0137,0.24912 0.0683,0.54956 0.0859,0.31446 0.23184,0.51781 0.14794,0.2028 0.32098,0.30836 0.18069,0.10991 0.38666,0.13114 0.20743,0.0187 0.41573,-0.0382 0.28642,-0.0782 0.50998,-0.24477 0.22355,-0.16653 0.38826,-0.42245 l 0.028,-0.008 z"
           inkscape:connector-curvature="0" />
        <path
           id="path4674"
           style="font-size:4.25226259px;line-height:1.25;letter-spacing:0.42333332px;fill:#ffffff;stroke-width:0.1090406"
           d="m 578.41929,-301.20478 q 0.13818,0.30667 0.17324,0.56643 0.0361,0.25701 -0.049,0.47754 -0.0809,0.20955 -0.24606,0.36366 -0.16513,0.15411 -0.42447,0.27097 -0.26502,0.11942 -0.49345,0.13809 -0.22843,0.0187 -0.42425,-0.0571 -0.22328,-0.0861 -0.39037,-0.27502 -0.1652,-0.18973 -0.30935,-0.50965 l -0.76,-1.68666 0.37481,-0.16889 0.76853,1.70559 q 0.10321,0.22906 0.19321,0.34792 0.0919,0.11801 0.21433,0.19264 0.13874,0.0855 0.30886,0.084 0.17202,-0.002 0.37268,-0.0928 0.20255,-0.0913 0.31723,-0.21582 0.11382,-0.12644 0.14271,-0.28976 0.0252,-0.14117 -0.007,-0.293 -0.0309,-0.15459 -0.12391,-0.36092 l -0.7728,-1.71506 0.37482,-0.16889 z"
           inkscape:connector-curvature="0" />
        <path
           id="path4676"
           style="font-size:4.25226259px;line-height:1.25;letter-spacing:0.42333332px;fill:#ffffff;stroke-width:0.1090406"
           d="m 582.13104,-302.06291 -0.44685,0.29166 -1.53772,-0.46412 -0.4851,0.31663 0.67186,1.02931 -0.34426,0.22471 -1.68986,-2.58891 0.72504,-0.47325 q 0.23472,-0.15321 0.41163,-0.22406 0.17577,-0.0726 0.35203,-0.0761 0.19871,-0.003 0.36548,0.0813 0.16736,0.0817 0.30242,0.28858 0.18271,0.27993 0.16558,0.56137 -0.0183,0.27971 -0.20274,0.53649 z m -2.01935,-1.33494 q -0.0726,-0.11128 -0.16824,-0.17037 -0.095,-0.062 -0.22399,-0.0621 -0.10768,-0.002 -0.22274,0.0462 -0.1162,0.0461 -0.2553,0.13689 l -0.40511,0.26443 0.63781,0.97714 0.34773,-0.22698 q 0.16344,-0.10668 0.26699,-0.21394 0.10242,-0.109 0.13654,-0.24285 0.0306,-0.1241 0.006,-0.24182 -0.0242,-0.12059 -0.11949,-0.26664 z"
           inkscape:connector-curvature="0" />
        <path
           id="path4678"
           style="font-size:4.25226259px;line-height:1.25;letter-spacing:0.42333332px;fill:#ffffff;stroke-width:0.1090406"
           d="m 583.58676,-303.30961 -0.93204,0.78854 -0.20384,-0.24093 0.3091,-0.26151 -1.58917,-1.87835 -0.30909,0.2615 -0.20384,-0.24093 0.93204,-0.78855 0.20384,0.24094 -0.3091,0.2615 1.58917,1.87836 0.30909,-0.26151 z"
           inkscape:connector-curvature="0" />
        <path
           id="path4680"
           style="font-size:4.25226259px;line-height:1.25;letter-spacing:0.42333332px;fill:#ffffff;stroke-width:0.1090406"
           d="m 583.926,-307.54735 -0.75336,0.80782 1.99373,1.85933 -0.28038,0.30065 -1.99374,-1.85932 -0.75336,0.80782 -0.26724,-0.24924 1.7871,-1.91629 z"
           inkscape:connector-curvature="0" />
        <path
           id="path4682"
           style="font-size:4.25226259px;line-height:1.25;letter-spacing:0.42333332px;fill:#ffffff;stroke-width:0.1090406"
           d="m 585.16074,-309.93099 0.79382,1.88852 1.10897,0.78003 -0.23651,0.33626 -1.07331,-0.75495 -2.08374,-0.13042 0.2616,-0.37192 1.61722,0.10436 -0.64009,-1.49355 z"
           inkscape:connector-curvature="0" />
      </g>
      <g
         style="opacity:1"
         transform="matrix(0.35492886,0,0,0.35492886,564.45329,-675.73375)"
         id="g4817">
        <path
           style="fill:#7f8c8d"
           inkscape:connector-curvature="0"
           d="m 12,1031.4 c -2.7614,0 -5,2.6 -5,6 v 1 c 0,0.5 0.3731,1 0.8333,1 0.4603,0 0.8334,-0.5 0.8334,-1 v -1 c 0,-2.4 1.4923,-4.3 3.3333,-4.3 1.841,0 3.333,1.9 3.333,4.3 v 1 c 0,0.5 0.373,1 0.834,1 0.46,0 0.833,-0.5 0.833,-1 v -1 c 0,-3.4 -2.239,-6 -5,-6 z"
           id="path4793" />
        <path
           style="fill:#f1c40f"
           inkscape:connector-curvature="0"
           d="m 6,1037.4 c -1.1046,0 -2,0.9 -2,2 v 7 c 0,1.1 0.8954,2 2,2 h 12 c 1.105,0 2,-0.9 2,-2 v -7 c 0,-1.1 -0.895,-2 -2,-2 z"
           id="path4795" />
        <path
           style="fill:#bdc3c7"
           inkscape:connector-curvature="0"
           d="m 12,1029.9 c -3.3137,0 -6,2.7 -6,6 v 1 c 0,0.6 0.4477,1 1,1 0.5523,0 1,-0.4 1,-1 v -1 c 0,-2.3 1.7909,-4.2 4,-4.2 2.209,0 4,1.9 4,4.2 v 1 c 0,0.6 0.448,1 1,1 0.552,0 1,-0.4 1,-1 v -1 c 0,-3.3 -2.686,-6 -6,-6 z"
           id="path4797" />
        <path
           style="fill:#f39c12"
           inkscape:connector-curvature="0"
           d="m 6,1039.4 c -1.1046,0 -2,0.9 -2,2 v 7 c 0,1.1 0.8954,2 2,2 h 12 c 1.105,0 2,-0.9 2,-2 v -7 c 0,-1.1 -0.895,-2 -2,-2 z"
           id="path4799" />
        <path
           style="fill:#7f8c8d"
           inkscape:connector-curvature="0"
           d="m 6.327,1037.4 c -0.3403,0 -0.6569,0.1 -0.9375,0.2 0.222,0.9 1.0056,1.5 1.9375,1.5 1.0193,0 1.845,-0.8 1.9688,-1.7 z"
           id="path4801" />
        <path
           style="fill:#7f8c8d"
           inkscape:connector-curvature="0"
           d="m 17.792,1037.3 c 0.34,0 0.657,0.1 0.937,0.3 -0.222,0.8 -1.005,1.5 -1.937,1.5 -1.02,0 -1.845,-0.8 -1.969,-1.8 z"
           id="path4803" />
        <path
           style="fill:#95a5a6"
           inkscape:connector-curvature="0"
           d="m 12,1030.4 c -3.3137,0 -6,2.6 -6,6 v 1 c 0,0.5 0.4477,1 1,1 0.5523,0 1,-0.5 1,-1 v -1 c 0,-2.4 1.7909,-4.3 4,-4.3 2.209,0 4,1.9 4,4.3 v 1 c 0,0.5 0.448,1 1,1 0.552,0 1,-0.5 1,-1 v -1 c 0,-3.4 -2.686,-6 -6,-6 z"
           id="path4805" />
        <g
           style="fill:#e67e22"
           id="g4815">
          <rect
             height="1"
             width="12"
             x="6"
             y="1041.4"
             id="rect4807" />
          <rect
             height="1"
             width="12"
             x="6"
             y="1043.4"
             id="rect4809" />
          <rect
             height="1"
             width="12"
             x="6"
             y="1045.4"
             id="rect4811" />
          <rect
             height="1"
             width="12"
             x="6"
             y="1047.4"
             id="rect4813" />
        </g>
      </g>
      <g
         transform="matrix(1.1483612,0,0,1.1483612,2.8706546,59.871082)"
         id="g4907">
        <path
           style="fill:#ececec;stroke:#000000;stroke-width:0.13229167;stroke-linecap:butt;stroke-linejoin:miter;stroke-miterlimit:4;stroke-dasharray:none;stroke-opacity:1"
           d="m 485.59211,-352.94411 11.44342,-4.78713 0.54602,1.30588 c 0.16892,-0.15283 0.33999,-0.29167 0.56465,-0.0822 l 1.79728,1.62304 0.005,-2.4184 h 0.74906 v 6.86715 h -0.74906 l -0.005,-3.22617 -1.92624,-1.72124 0.42381,1.01198 -8.855,3.70488 z"
           id="path4898"
           inkscape:connector-curvature="0"
           sodipodi:nodetypes="cccccccccccccc" />
        <path
           style="fill:#b3b3b3;stroke:#000000;stroke-width:0.13229167;stroke-linecap:butt;stroke-linejoin:miter;stroke-miterlimit:4;stroke-dasharray:none;stroke-opacity:1"
           d="m 485.66895,-352.123 0.13721,-0.0573 3.74206,2.13432 8.19965,-3.43038 0.39277,0.93882 -2.17329,0.90898 -0.14853,0.73183 -3.30698,1.36803 -0.6223,-0.39388 -4.51093,1.88666 z"
           id="path4900"
           inkscape:connector-curvature="0" />
        <path
           style="fill:#666666;fill-opacity:0.70899467;stroke:#000000;stroke-width:0.13229167;stroke-linecap:butt;stroke-linejoin:miter;stroke-miterlimit:4;stroke-dasharray:none;stroke-opacity:1"
           d="m 484.79987,-351.01164 0.81741,-0.34248 1.17768,2.81535 -0.81745,0.34163 z"
           id="path4902"
           inkscape:connector-curvature="0" />
      </g>
    </g>
  </g>
</svg>
